# xmcd CD database file
#
# Track frame offsets:
#	182
#	65662
#	97587
#	141037
#	184575
#	236675
#	271375
#	275525
#
# Disc length: 3735 seconds
#
# Revision: 0
# Processed by: cddbd v1.5.1PL0 Copyright (c) Steve Scherf et al.
# Submitted via: CDex 1.51
#
DISCID=6c0e9508
DTITLE=Mike D´Vinci - Conducción Segura
DYEAR=1990
DGENRE=New Age
TTITLE0=Paisaje
TTITLE1=Color Verde
TTITLE2=Selva
TTITLE3=Wave Song
TTITLE4=String Fall
TTITLE5=Blue Sky
TTITLE6=Tierra
TTITLE7=Light
EXTD=YEAR: 1990
EXTT0=
EXTT1=
EXTT2=
EXTT3=
EXTT4=
EXTT5=
EXTT6=
EXTT7=
PLAYORDER=
